<svg id="main-logo" xmlns="http://www.w3.org/2000/svg" viewBox="0 0 1420 500">
  <defs>
    <style>
      .cls-1 {
        fill: #888;
      }

      .cls-2 {
        fill: #1c8484;
      }
    </style>
  </defs>
  <title>hbgi</title>
  <g>
    <g id="mark-2" data-name="mark">
      <path class="cls-1" d="M332.88,250.3c-1.69.12-3.39,0.2-5.11,0.2a72.56,72.56,0,0,1,72.35,72.35v9a72.56,72.56,0,0,1-72.35,72.35H246.4V96.79h81.37c1.83,0,3.63.09,5.43,0.23L352,63.73A213.11,213.11,0,0,0,246.4,35.9C128.16,35.9,32.3,131.76,32.3,250s95.86,214.1,214.1,214.1S460.5,368.24,460.5,250ZM159.4,403.71H123.2V96.29h36.2V403.71Zm61.6,0H184.8V96.29H221V403.71Z"/>
      <path class="cls-2" d="M327.77,250.5H246.4L333.21,97a72.59,72.59,0,0,1,66.91,72.14v9A72.56,72.56,0,0,1,327.77,250.5Z"/>
    </g>
    <g id="font">
      <g>
        <path class="cls-1" d="M1065.06,446.17V274.91h8.45V446.17h-8.45Z"/>
        <path class="cls-1" d="M1223.6,446.17L1137.94,284.7c0.72,10,1.21,23.35,1.21,53.49v108h-8.21V274.91h10.62L1227,436.38c-0.48-9.79-1-26.87-1-49.72V274.91h8.21V446.17H1223.6Z"/>
        <path class="cls-1" d="M1385.77,289.56l-4.58,6.11c-11.34-8.79-20-12.7-34.75-12.7-31.37,0-57.19,22.71-57.19,77.92,0,52.27,25.1,77.67,56.23,77.67,18.1,0,27.51-5.86,37.4-14.17l4.83,6.11c-10.38,9.28-23.41,16.12-42.47,16.12-36.92,0-64.67-29.8-64.67-85.73,0-57.64,29.2-86,65.4-86C1364.29,274.91,1375.15,280.53,1385.77,289.56Z"/>
      </g>
      <g>
        <g>
          <path class="cls-2" d="M612.45,374.59l-2.4,2.74a26.76,26.76,0,0,0-17.81-6c-13,0-27.17,10-27.17,36,0,25,11.19,36.87,27.63,36.87a33.32,33.32,0,0,0,17.46-4.45V409.17H594l-0.46-3.65h20.66v36.3a42.23,42.23,0,0,1-21.46,5.94C574,447.76,561,434.17,561,407.23c0-27.17,16-39.72,31.28-39.72C600.8,367.51,606.4,369.91,612.45,374.59Z"/>
          <path class="cls-2" d="M672.6,410.31v36.3h-4V368.76H686.3c18.26,0,26.37,7.31,26.37,20.55,0,12.1-7.08,17.92-17.69,20.32l21.69,37h-5l-20.89-36.3H672.6Zm35.84-21c0-11-6-17-22.49-17H672.6v34.36h14.5C700.57,406.66,708.44,401.3,708.44,389.31Z"/>
          <path class="cls-2" d="M823.28,407.8c0,25.34-11.87,40-30.94,40-18.38,0-30.93-14.16-30.93-39.84s12.67-40.41,30.93-40.41C810.84,367.51,823.28,381.43,823.28,407.8Zm-57.76.11c0,23.86,11.07,36.19,26.83,36.19,16.67,0,26.83-12.33,26.83-36.3,0-24.54-10.73-36.53-26.83-36.53C776.48,371.27,765.52,383.49,765.52,407.92Z"/>
          <path class="cls-2" d="M901.59,447.76c-17.12,0-24.43-10.39-24.43-25v-54h4v53.65c0,12.9,5.94,21.69,20.43,21.69s20.2-9,20.2-21.69V368.76h4.11v54C925.9,437.37,918.37,447.76,901.59,447.76Z"/>
          <path class="cls-2" d="M1029.32,391.48c0,17.24-11.76,23.63-28.42,23.63h-12.1v31.51h-4V368.76h16.67C1019.16,368.76,1029.32,375.5,1029.32,391.48Zm-4.22.11c0-14.27-8.45-19.29-23.63-19.29H988.79v39.15h12.44C1015.16,411.46,1025.09,406.78,1025.09,391.59Z"/>
        </g>
        <path class="cls-2" d="M608.46,331.53c0,13.7-9.59,21.23-26,21.23h-21V274.91H578c16.78,0,26.6,6.28,26.6,19.29,0,10.27-5.48,15.75-14,17.24C600.25,312,608.46,317.94,608.46,331.53Zm-43-21.57h18.49c9.93,0,16.55-5.94,16.55-15.64,0-11-7.88-15.75-22-15.75h-13V310Zm38.93,21.57c0-12.44-8.33-18.15-19.86-18.15H565.43v35.73h17.12C596.14,349.11,604.36,343.4,604.36,331.53Z"/>
        <path class="cls-2" d="M652.41,352.76c-17.12,0-24.43-10.24-24.43-24.64V274.89h4v52.89c0,12.72,5.94,21.38,20.43,21.38s20.2-8.89,20.2-21.38V274.89h4.11v53.23C676.72,342.52,669.19,352.76,652.41,352.76Z"/>
        <path class="cls-2" d="M740.76,283l-2.51,2.66c-5.71-5-10.84-7.09-18.49-7.09-10.84,0-17.69,5.76-17.69,14.18,0,8.75,5,12.52,18.95,16.62,15.18,4.43,22.14,9.41,22.14,21.93,0,12.85-10,21.49-24.43,21.49-10.27,0-17.46-3.65-23.86-9.19l2.63-2.66c5.59,5,11.64,8.31,21.12,8.31,12.21,0,20.55-6.87,20.55-17.72,0-10.52-5.25-14.51-19.63-18.83C703.77,307.9,698,302.91,698,292.72s8.56-17.83,21.69-17.83C729.34,274.89,735.05,278,740.76,283Z"/>
        <path class="cls-2" d="M764.38,352.76V274.91h4v77.85h-4Z"/>
        <path class="cls-2" d="M839.72,352.76l-40.52-73.4c0.34,4.57.57,10.62,0.57,24.31v49.08h-3.88V274.91h5l40.41,73.4c-0.23-4.45-.46-12.21-0.46-22.6v-50.8h3.88v77.85h-5Z"/>
        <path class="cls-2" d="M876.13,278.56v31.51h28.65v3.54H876.13v35.5h34.36v3.65H872.14V274.91h37.67l-0.57,3.65h-33.1Z"/>
        <path class="cls-2" d="M966.88,283l-2.51,2.66c-5.71-5-10.84-7.09-18.49-7.09-10.84,0-17.69,5.76-17.69,14.18,0,8.75,5,12.52,18.95,16.62,15.18,4.43,22.14,9.41,22.14,21.93,0,12.85-10,21.49-24.43,21.49-10.27,0-17.46-3.65-23.86-9.19l2.63-2.66c5.59,5,11.64,8.31,21.12,8.31,12.21,0,20.55-6.87,20.55-17.72,0-10.52-5.25-14.51-19.63-18.83-15.75-4.76-21.57-9.75-21.57-19.94s8.56-17.83,21.69-17.83C955.46,274.89,961.17,278,966.88,283Z"/>
        <path class="cls-2" d="M1027.15,283l-2.51,2.66c-5.71-5-10.84-7.09-18.49-7.09-10.84,0-17.69,5.76-17.69,14.18,0,8.75,5,12.52,18.95,16.62,15.18,4.43,22.14,9.41,22.14,21.93,0,12.85-10,21.49-24.43,21.49-10.27,0-17.46-3.65-23.86-9.19l2.63-2.66c5.59,5,11.64,8.31,21.12,8.31,12.21,0,20.55-6.87,20.55-17.72,0-10.52-5.25-14.51-19.63-18.83-15.75-4.76-21.57-9.75-21.57-19.94s8.56-17.83,21.69-17.83C1015.73,274.89,1021.44,278,1027.15,283Z"/>
      </g>
      <g>
        <path class="cls-1" d="M587.77,164.9V266.35h-26.3V52.24h26.3v90.25h91.45V52.24h26.61v214.1H679.22V164.9H587.77Z"/>
        <path class="cls-1" d="M786.88,211.58l-16.52,54.77H743.45l68.21-214.1H845.3l67.9,214.1H885.07l-16.21-54.77h-82Zm41-136.93L793.31,189.48h68.82Z"/>
        <path class="cls-1" d="M994.57,266.35H967.65V183.88L900.06,52.24h29.36l52.61,108,52.3-108h27.83l-67.6,131.33v82.78Z"/>
        <path class="cls-1" d="M1125.78,74v72.2h71.88V168h-71.88v76.55h88.09v21.78H1099.48V52.24h112.25L1208.67,74h-82.89Z"/>
        <path class="cls-1" d="M1380.92,75.94l-15.09,16.5c-15.4-13.2-30.19-18.6-48.05-18.6-22.48,0-39.43,10.5-39.43,30.6,0,18.3,8.93,27,47.13,38.4,34.8,10.2,62.22,23.4,62.22,62.1,0,36-27.72,60.9-74.23,60.9-30.19,0-53.6-9.9-71.15-26.4l15.71-16.8c14.48,13.5,31.73,21.6,55.13,21.6,25.87,0,46.82-12.9,46.82-38.4,0-21.3-10.47-30.6-46.82-41.4-41.58-12.3-62.22-27.6-62.22-59.1,0-30.9,27.11-53.1,65.61-53.1C1345.5,52.24,1363.67,60.64,1380.92,75.94Z"/>
      </g>
    </g>
  </g>
</svg>
